<mxfile host="65bd71144e">
    <diagram id="egU7RrpqU0t_ORtNhBvx" name="第 1 页">
        <mxGraphModel dx="1414" dy="821" grid="0" gridSize="9" guides="1" tooltips="1" connect="1" arrows="1" fold="1" page="1" pageScale="1" pageWidth="2339" pageHeight="3300" background="#ffffff" math="0" shadow="0">
            <root>
                <mxCell id="0"/>
                <mxCell id="1" parent="0"/>
                <mxCell id="7" value="" style="edgeStyle=none;html=1;fontColor=#000000;strokeColor=#0e8088;strokeWidth=2;fillColor=#b0e3e6;" edge="1" parent="1" source="2" target="3">
                    <mxGeometry relative="1" as="geometry"/>
                </mxCell>
                <mxCell id="2" value="&lt;font color=&quot;#000000&quot; style=&quot;font-size: 18px;&quot;&gt;客户需求文档&lt;/font&gt;" style="rounded=1;whiteSpace=wrap;html=1;fillColor=#b0e3e6;strokeColor=#0e8088;strokeWidth=2;fontSize=18;" vertex="1" parent="1">
                    <mxGeometry x="196" y="447" width="90" height="70" as="geometry"/>
                </mxCell>
                <mxCell id="10" style="edgeStyle=none;html=1;exitX=0.5;exitY=1;exitDx=0;exitDy=0;entryX=0.5;entryY=0;entryDx=0;entryDy=0;fontColor=#000000;strokeColor=#0e8088;strokeWidth=2;fillColor=#b0e3e6;" edge="1" parent="1" source="3" target="4">
                    <mxGeometry relative="1" as="geometry"/>
                </mxCell>
                <mxCell id="3" value="&lt;font color=&quot;#000000&quot; style=&quot;font-size: 18px;&quot;&gt;需求矩阵&lt;/font&gt;" style="rounded=0;whiteSpace=wrap;html=1;fillColor=#b0e3e6;strokeColor=#0e8088;strokeWidth=2;fontSize=18;" vertex="1" parent="1">
                    <mxGeometry x="333" y="447" width="90" height="70" as="geometry"/>
                </mxCell>
                <mxCell id="11" style="edgeStyle=none;html=1;exitX=1;exitY=0.5;exitDx=0;exitDy=0;entryX=0;entryY=0.5;entryDx=0;entryDy=0;fontColor=#000000;strokeColor=#0e8088;strokeWidth=2;fillColor=#b0e3e6;" edge="1" parent="1" source="4" target="5">
                    <mxGeometry relative="1" as="geometry"/>
                </mxCell>
                <mxCell id="19" style="edgeStyle=none;html=1;exitX=0.5;exitY=1;exitDx=0;exitDy=0;entryX=0;entryY=0.5;entryDx=0;entryDy=0;fontColor=#000000;strokeColor=#0e8088;strokeWidth=2;fillColor=#b0e3e6;" edge="1" parent="1" source="4" target="18">
                    <mxGeometry relative="1" as="geometry">
                        <Array as="points">
                            <mxPoint x="378" y="801"/>
                        </Array>
                    </mxGeometry>
                </mxCell>
                <mxCell id="4" value="&lt;font color=&quot;#000000&quot; style=&quot;font-size: 18px;&quot;&gt;CRS&lt;/font&gt;" style="rounded=0;whiteSpace=wrap;html=1;fillColor=#b0e3e6;strokeColor=#0e8088;strokeWidth=2;fontSize=18;" vertex="1" parent="1">
                    <mxGeometry x="333" y="640" width="90" height="70" as="geometry"/>
                </mxCell>
                <mxCell id="5" value="&lt;font color=&quot;#000000&quot; style=&quot;font-size: 18px;&quot;&gt;SW&lt;/font&gt;" style="rounded=0;whiteSpace=wrap;html=1;fillColor=#fad7ac;strokeColor=#b46504;strokeWidth=2;fontSize=18;" vertex="1" parent="1">
                    <mxGeometry x="484" y="640" width="90" height="70" as="geometry"/>
                </mxCell>
                <mxCell id="21" style="edgeStyle=none;html=1;exitX=0.5;exitY=0;exitDx=0;exitDy=0;entryX=0.5;entryY=0;entryDx=0;entryDy=0;fontColor=#000000;strokeColor=#b46504;strokeWidth=2;fillColor=#fad7ac;" edge="1" parent="1" source="66" target="5">
                    <mxGeometry relative="1" as="geometry">
                        <mxPoint x="1371" y="640" as="sourcePoint"/>
                        <Array as="points">
                            <mxPoint x="1390" y="544"/>
                            <mxPoint x="1151" y="544"/>
                            <mxPoint x="1041" y="544"/>
                            <mxPoint x="798" y="544"/>
                            <mxPoint x="528" y="544"/>
                        </Array>
                    </mxGeometry>
                </mxCell>
                <mxCell id="57" style="edgeStyle=none;html=1;exitX=1;exitY=0.5;exitDx=0;exitDy=0;entryX=0;entryY=0.5;entryDx=0;entryDy=0;fontColor=#000000;strokeColor=#0e8088;strokeWidth=2;fillColor=#b0e3e6;" edge="1" parent="1" source="13" target="55">
                    <mxGeometry relative="1" as="geometry"/>
                </mxCell>
                <mxCell id="71" style="edgeStyle=none;html=1;exitX=0.5;exitY=0;exitDx=0;exitDy=0;fontColor=#000000;strokeColor=#b46504;strokeWidth=2;fillColor=#fad7ac;" edge="1" parent="1" source="13">
                    <mxGeometry relative="1" as="geometry">
                        <mxPoint x="1100.2857142857142" y="543.5714460100448" as="targetPoint"/>
                    </mxGeometry>
                </mxCell>
                <mxCell id="13" value="&lt;font color=&quot;#000000&quot; style=&quot;font-size: 18px&quot;&gt;台架功能测试&lt;/font&gt;" style="rounded=0;whiteSpace=wrap;html=1;fillColor=#fad7ac;strokeColor=#b46504;strokeWidth=2;fontSize=18;" vertex="1" parent="1">
                    <mxGeometry x="1055" y="640" width="90" height="70" as="geometry"/>
                </mxCell>
                <mxCell id="15" value="内部评审" style="text;html=1;align=center;verticalAlign=middle;resizable=0;points=[];autosize=1;strokeColor=none;fillColor=none;fontColor=#000000;fontSize=16;" vertex="1" parent="1">
                    <mxGeometry x="378" y="557" width="74" height="23" as="geometry"/>
                </mxCell>
                <mxCell id="31" style="edgeStyle=none;html=1;exitX=1;exitY=0.5;exitDx=0;exitDy=0;fontColor=#000000;strokeColor=#0e8088;strokeWidth=2;entryX=0.5;entryY=1;entryDx=0;entryDy=0;fillColor=#b0e3e6;" edge="1" parent="1" source="18" target="13">
                    <mxGeometry relative="1" as="geometry">
                        <mxPoint x="863" y="656" as="targetPoint"/>
                        <Array as="points">
                            <mxPoint x="1079" y="801"/>
                            <mxPoint x="1100" y="801"/>
                        </Array>
                    </mxGeometry>
                </mxCell>
                <mxCell id="18" value="&lt;font color=&quot;#000000&quot; style=&quot;font-size: 18px;&quot;&gt;测试用例&lt;/font&gt;" style="rounded=0;whiteSpace=wrap;html=1;fillColor=#b0e3e6;strokeColor=#0e8088;strokeWidth=2;fontSize=18;" vertex="1" parent="1">
                    <mxGeometry x="695" y="766" width="90" height="70" as="geometry"/>
                </mxCell>
                <mxCell id="27" value="" style="edgeStyle=none;html=1;fontColor=#000000;strokeColor=#b46504;strokeWidth=2;fillColor=#fad7ac;entryX=0;entryY=0.5;entryDx=0;entryDy=0;" edge="1" parent="1" source="22" target="62">
                    <mxGeometry relative="1" as="geometry">
                        <mxPoint x="778" y="674.9999999999998" as="targetPoint"/>
                    </mxGeometry>
                </mxCell>
                <mxCell id="22" value="&lt;font color=&quot;#000000&quot; style=&quot;font-size: 18px;&quot;&gt;单元测试&lt;/font&gt;" style="rounded=0;whiteSpace=wrap;html=1;fillColor=#fad7ac;strokeColor=#b46504;strokeWidth=2;fontSize=18;" vertex="1" parent="1">
                    <mxGeometry x="631" y="640" width="90" height="70" as="geometry"/>
                </mxCell>
                <mxCell id="24" value="" style="endArrow=classic;startArrow=classic;html=1;fontColor=#000000;strokeColor=#b46504;strokeWidth=2;entryX=1;entryY=0.5;entryDx=0;entryDy=0;exitX=0;exitY=0.5;exitDx=0;exitDy=0;fillColor=#fad7ac;" edge="1" parent="1" source="22" target="5">
                    <mxGeometry width="100" height="100" relative="1" as="geometry">
                        <mxPoint x="451" y="782" as="sourcePoint"/>
                        <mxPoint x="551" y="682" as="targetPoint"/>
                    </mxGeometry>
                </mxCell>
                <mxCell id="45" value="" style="edgeStyle=none;html=1;fontColor=#000000;strokeColor=#b46504;strokeWidth=2;fillColor=#fad7ac;" edge="1" parent="1" source="62" target="44">
                    <mxGeometry relative="1" as="geometry">
                        <mxPoint x="862" y="674.9999999999998" as="sourcePoint"/>
                    </mxGeometry>
                </mxCell>
                <mxCell id="38" value="客户确认" style="text;html=1;align=center;verticalAlign=middle;resizable=0;points=[];autosize=1;strokeColor=none;fillColor=none;fontColor=#000000;fontSize=16;" vertex="1" parent="1">
                    <mxGeometry x="419" y="651.5" width="74" height="23" as="geometry"/>
                </mxCell>
                <mxCell id="46" value="" style="edgeStyle=none;html=1;fontColor=#000000;strokeColor=#b46504;strokeWidth=2;fillColor=#fad7ac;" edge="1" parent="1" source="44" target="13">
                    <mxGeometry relative="1" as="geometry"/>
                </mxCell>
                <mxCell id="70" style="edgeStyle=none;html=1;exitX=0.5;exitY=0;exitDx=0;exitDy=0;fontColor=#000000;strokeColor=#b46504;strokeWidth=2;fillColor=#fad7ac;" edge="1" parent="1" source="44">
                    <mxGeometry relative="1" as="geometry">
                        <mxPoint x="963" y="541" as="targetPoint"/>
                    </mxGeometry>
                </mxCell>
                <mxCell id="44" value="&lt;font color=&quot;#000000&quot; style=&quot;font-size: 18px;&quot;&gt;静态检查&lt;/font&gt;" style="rounded=0;whiteSpace=wrap;html=1;fillColor=#fad7ac;strokeColor=#b46504;strokeWidth=2;fontSize=18;" vertex="1" parent="1">
                    <mxGeometry x="918" y="640" width="90" height="70" as="geometry"/>
                </mxCell>
                <mxCell id="47" value="测试OK" style="text;html=1;align=center;verticalAlign=middle;resizable=0;points=[];autosize=1;strokeColor=none;fillColor=none;fontColor=#000000;fontSize=16;" vertex="1" parent="1">
                    <mxGeometry x="716" y="651" width="65" height="23" as="geometry"/>
                </mxCell>
                <mxCell id="49" value="bug管理文档、问题分析报告、整改记录、LLC" style="text;html=1;align=center;verticalAlign=middle;resizable=0;points=[];autosize=1;strokeColor=none;fillColor=none;fontColor=#000000;fontSize=16;" vertex="1" parent="1">
                    <mxGeometry x="716" y="512" width="338" height="23" as="geometry"/>
                </mxCell>
                <mxCell id="68" style="edgeStyle=none;html=1;exitX=1;exitY=0.5;exitDx=0;exitDy=0;entryX=0;entryY=0.5;entryDx=0;entryDy=0;fontColor=#000000;strokeColor=#0e8088;strokeWidth=2;fillColor=#b0e3e6;" edge="1" parent="1" source="55" target="66">
                    <mxGeometry relative="1" as="geometry"/>
                </mxCell>
                <mxCell id="55" value="&lt;font color=&quot;#000000&quot; style=&quot;font-size: 18px&quot;&gt;DR&lt;br&gt;checklist&lt;/font&gt;" style="rounded=0;whiteSpace=wrap;html=1;fillColor=#b0e3e6;strokeColor=#0e8088;strokeWidth=2;fontSize=18;" vertex="1" parent="1">
                    <mxGeometry x="1200" y="640" width="90" height="70" as="geometry"/>
                </mxCell>
                <mxCell id="58" value="&lt;font color=&quot;#000000&quot; style=&quot;font-size: 18px;&quot;&gt;Realse&lt;/font&gt;" style="rounded=1;whiteSpace=wrap;html=1;fillColor=#b0e3e6;strokeColor=#0e8088;strokeWidth=2;fontSize=18;" vertex="1" parent="1">
                    <mxGeometry x="1345" y="801" width="90" height="70" as="geometry"/>
                </mxCell>
                <mxCell id="62" value="&lt;font color=&quot;#000000&quot;&gt;集成&lt;/font&gt;" style="rounded=0;whiteSpace=wrap;html=1;fillColor=#fad7ac;strokeColor=#b46504;strokeWidth=2;fontSize=18;" vertex="1" parent="1">
                    <mxGeometry x="781" y="640" width="90" height="70" as="geometry"/>
                </mxCell>
                <mxCell id="67" style="edgeStyle=none;html=1;exitX=0.5;exitY=1;exitDx=0;exitDy=0;fontColor=#000000;strokeColor=#0e8088;strokeWidth=2;fillColor=#b0e3e6;" edge="1" parent="1" source="66" target="58">
                    <mxGeometry relative="1" as="geometry"/>
                </mxCell>
                <mxCell id="66" value="&lt;font color=&quot;#000000&quot; style=&quot;font-size: 18px;&quot;&gt;整车验证&lt;/font&gt;" style="rounded=0;whiteSpace=wrap;html=1;fillColor=#b0e3e6;strokeColor=#0e8088;strokeWidth=2;fontSize=18;" vertex="1" parent="1">
                    <mxGeometry x="1345" y="640" width="90" height="70" as="geometry"/>
                </mxCell>
                <mxCell id="75" value="版本更新记录" style="text;html=1;align=center;verticalAlign=middle;resizable=0;points=[];autosize=1;strokeColor=none;fillColor=none;fontSize=16;fontColor=#000000;" vertex="1" parent="1">
                    <mxGeometry x="1334" y="885" width="106" height="23" as="geometry"/>
                </mxCell>
                <mxCell id="76" value="SW_Release_Note" style="text;html=1;align=center;verticalAlign=middle;resizable=0;points=[];autosize=1;strokeColor=none;fillColor=none;fontSize=16;fontColor=#000000;" vertex="1" parent="1">
                    <mxGeometry x="1174" y="716" width="146" height="23" as="geometry"/>
                </mxCell>
                <mxCell id="77" value="Report" style="text;html=1;align=center;verticalAlign=middle;resizable=0;points=[];autosize=1;strokeColor=none;fillColor=none;fontSize=16;fontColor=#000000;" vertex="1" parent="1">
                    <mxGeometry x="1071" y="716" width="58" height="23" as="geometry"/>
                </mxCell>
                <mxCell id="78" value="Report" style="text;html=1;align=center;verticalAlign=middle;resizable=0;points=[];autosize=1;strokeColor=none;fillColor=none;fontSize=16;fontColor=#000000;" vertex="1" parent="1">
                    <mxGeometry x="934" y="716" width="58" height="23" as="geometry"/>
                </mxCell>
                <mxCell id="79" value="Report" style="text;html=1;align=center;verticalAlign=middle;resizable=0;points=[];autosize=1;strokeColor=none;fillColor=none;fontSize=16;fontColor=#000000;" vertex="1" parent="1">
                    <mxGeometry x="1365" y="716" width="58" height="23" as="geometry"/>
                </mxCell>
                <mxCell id="80" value="Report" style="text;html=1;align=center;verticalAlign=middle;resizable=0;points=[];autosize=1;strokeColor=none;fillColor=none;fontSize=16;fontColor=#000000;" vertex="1" parent="1">
                    <mxGeometry x="647" y="716" width="58" height="23" as="geometry"/>
                </mxCell>
                <mxCell id="81" value="DR&lt;br&gt;Interface&lt;br&gt;Change_Record&lt;br&gt;Data_Manage&lt;br&gt;人机交互表&lt;br&gt;奇瑞规范" style="text;html=1;align=center;verticalAlign=middle;resizable=0;points=[];autosize=1;strokeColor=none;fillColor=none;fontSize=16;fontColor=#000000;" vertex="1" parent="1">
                    <mxGeometry x="465.5" y="710" width="127" height="118" as="geometry"/>
                </mxCell>
                <mxCell id="82" value="TestCase" style="text;html=1;align=center;verticalAlign=middle;resizable=0;points=[];autosize=1;strokeColor=none;fillColor=none;fontSize=16;fontColor=#000000;" vertex="1" parent="1">
                    <mxGeometry x="702" y="848" width="76" height="23" as="geometry"/>
                </mxCell>
                <mxCell id="83" value="" style="shape=flexArrow;endArrow=classic;html=1;fontSize=16;fontColor=#000000;strokeWidth=2;width=31;endSize=9.014285714285714;fillColor=#f5f5f5;gradientColor=#b3b3b3;strokeColor=#666666;" edge="1" parent="1">
                    <mxGeometry width="50" height="50" relative="1" as="geometry">
                        <mxPoint x="213" y="946" as="sourcePoint"/>
                        <mxPoint x="1437" y="946" as="targetPoint"/>
                    </mxGeometry>
                </mxCell>
                <mxCell id="84" value="Schedule、DTL、SIQ......" style="edgeLabel;html=1;align=center;verticalAlign=middle;resizable=0;points=[];fontSize=16;fontColor=#000000;labelBackgroundColor=#FFFFFF;" vertex="1" connectable="0" parent="83">
                    <mxGeometry x="-0.0739" y="-4" relative="1" as="geometry">
                        <mxPoint x="24" y="-3" as="offset"/>
                    </mxGeometry>
                </mxCell>
            </root>
        </mxGraphModel>
    </diagram>
</mxfile>